PathFileType  4	(X/Y/Z) C:\Users\antoi\Documents\MyRepositories\mobilecap\ResultsAnalysis
DataRate	CameraRate	NumFrames	NumMarkers	Units	OrigDataRate	OrigDataStartFrame	OrigNumFrames
100.0	100.0	4	51	mm	100.0	1	134
Frame#	Time	r_knee			r_shank_antsup			r_ankle			r_calc			r_5meta			r_toe			L_knee			L_shank_antsup			L_ankle			L_calc			L_5meta			L_toe			r_sh2			r_sh3			r_sh4			L_sh2			L_sh3			r_thigh1			r_thigh2			r_thigh3			r_thigh4			r_thigh5			L_thigh1			L_thigh2			L_thigh3			L_thigh4			r.ASIS			r.PSIS			L.ASIS			L.PSIS			C7			R_Shoulder			L_Shoulder			R_Sternum			L_Sternum			R_humerus			R_elbow_med			R_elbow_lat			R_forearm			R_wrist_radius			R_wrist_ulna			L_humerus			L_elbow_med			L_elbow_lat			L_forearm			L_wrist_radius			L_wrist_ulna			R_HJC			L_HJC			R_HJC_reg			L_HJC_reg			
		X1	Y1	Z1	X2	Y2	Z2	X3	Y3	Z3	X4	Y4	Z4	X5	Y5	Z5	X6	Y6	Z6	X7	Y7	Z7	X8	Y8	Z8	X9	Y9	Z9	X10	Y10	Z10	X11	Y11	Z11	X12	Y12	Z12	X13	Y13	Z13	X14	Y14	Z14	X15	Y15	Z15	X16	Y16	Z16	X17	Y17	Z17	X18	Y18	Z18	X19	Y19	Z19	X20	Y20	Z20	X21	Y21	Z21	X22	Y22	Z22	X23	Y23	Z23	X24	Y24	Z24	X25	Y25	Z25	X26	Y26	Z26	X27	Y27	Z27	X28	Y28	Z28	X29	Y29	Z29	X30	Y30	Z30	X31	Y31	Z31	X32	Y32	Z32	X33	Y33	Z33	X34	Y34	Z34	X35	Y35	Z35	X36	Y36	Z36	X37	Y37	Z37	X38	Y38	Z38	X39	Y39	Z39	X40	Y40	Z40	X41	Y41	Z41	X42	Y42	Z42	X43	Y43	Z43	X44	Y44	Z44	X45	Y45	Z45	X46	Y46	Z46	X47	Y47	Z47	X48	Y48	Z48	X49	Y49	Z49	X50	Y50	Z50	X51	Y51	Z51	

1	0.00000000	107.99157	486.87885	-16.33923	167.70412	438.09774	-36.54509	210.36207	98.17694	-62.84685	154.32947	58.68114	-106.06030	324.01642	64.96346	-32.28496	366.26301	107.54122	-82.60857	-192.01662	480.22799	-248.19704	-205.68888	377.65890	-251.15468	-400.24929	136.48916	-189.78577	-471.50155	120.04149	-133.66428	-331.15034	41.53584	-238.92272	-274.08896	55.57323	-192.34177	182.11918	322.92770	-21.33410	90.61172	423.77710	-8.20606	107.48731	312.37925	-16.08976	-279.79201	428.98340	-246.12868	-337.97846	321.21035	-237.61699	54.51171	800.52765	27.44270	91.74350	693.14413	16.49992	-12.30867	652.48346	33.93523	-49.85455	762.40021	50.44332	45.57943	653.41720	44.92849	-102.67744	728.69418	-317.67695	-121.25481	597.26028	-284.73428	-202.59100	751.56137	-264.17817	-217.74124	614.65807	-237.31032	32.79476	939.51476	-18.45408	-164.40731	982.04183	-67.04898	4.42268	917.60882	-267.57744	-183.35248	987.21084	-166.02516	-190.46374	1381.09205	-165.75734	-97.60112	1364.75600	18.78651	-100.53578	1348.49558	-338.79764	-48.57615	1363.28862	-137.38274	-44.48791	1362.61002	-180.82467	-96.87915	1237.47418	97.11030	-122.68675	1017.51681	76.37502	-125.64082	1044.78594	143.01762	-34.96410	947.82727	194.65596	26.61730	831.64096	231.25713	-3.35848	819.98137	245.04475	-41.95462	1250.90497	-396.56211	38.41150	1023.93564	-355.72823	42.74760	1059.31773	-427.73998	158.23403	1051.95473	-421.46155	306.79415	998.92167	-424.44915	294.31835	975.76577	-446.99225	-49.13366	861.98421	-25.45606	-78.88949	852.62592	-229.55687	-38.50439	851.23256	-44.00424	-69.69247	859.74204	-206.94171	
2	0.01000000	121.31595	488.14720	-15.98711	178.61234	437.46244	-36.60056	213.47944	97.00286	-62.83411	156.38380	60.58246	-106.39431	325.55474	60.72361	-31.79799	369.78116	101.94021	-81.79648	-175.12496	479.30139	-249.55022	-191.86706	377.51682	-252.51758	-393.83846	142.66052	-191.46197	-465.41037	130.34417	-135.18488	-329.54943	42.86406	-239.23999	-271.98230	54.91044	-193.01250	191.03451	322.07302	-21.12421	101.67191	424.61270	-7.13672	116.45415	312.96362	-14.77219	-264.07290	431.00557	-246.89923	-326.03475	325.40907	-238.85054	68.33438	802.64143	27.53335	105.82605	694.91570	16.10750	1.53785	654.71562	35.60562	-35.48980	764.64145	51.86206	60.03703	655.62067	45.57955	-87.71907	728.49594	-317.28296	-105.24428	596.68641	-285.29251	-187.59992	750.31962	-263.48707	-201.52137	613.15914	-237.44145	46.92440	942.34815	-18.62376	-150.73386	983.31501	-67.04242	17.89211	917.88704	-267.33073	-169.76681	987.46796	-166.04615	-177.69959	1381.68560	-164.68330	-84.22994	1364.86620	19.52192	-88.07508	1349.73811	-337.94956	-35.73948	1363.95467	-136.67595	-31.54791	1363.47583	-180.09704	-82.75050	1237.66116	97.67610	-108.09938	1017.60767	76.60577	-110.75093	1044.61008	143.35363	-19.82833	948.09754	194.84699	42.41010	832.17068	231.32798	12.36420	820.34073	245.12412	-30.46583	1251.60134	-395.87687	48.02786	1024.08330	-354.40595	52.31447	1059.05078	-426.69323	167.73170	1051.39311	-420.30861	316.18784	998.03954	-423.07089	303.69204	974.81294	-445.48614	-34.63805	864.32251	-24.62349	-64.88225	852.83112	-228.52046	-24.17791	853.39241	-43.25509	-55.49957	860.22690	-206.18195	
3	0.02000000	134.34266	489.31912	-15.66390	189.44293	436.83777	-36.75020	216.50663	95.92380	-62.88406	158.35311	62.33954	-106.75603	327.03803	56.76667	-31.39644	373.10312	96.55629	-81.17102	-157.85634	478.38146	-251.25084	-177.55623	377.32482	-254.14515	-386.91951	148.99435	-193.30519	-458.64899	141.01861	-136.85000	-327.82661	44.38228	-239.57865	-269.74184	54.31631	-193.70471	199.92975	321.24772	-21.00264	112.70387	425.42247	-6.06378	125.40121	313.53327	-13.49742	-247.83719	433.00072	-247.90231	-313.55678	329.66756	-240.29275	82.08195	804.68471	27.60175	119.73256	696.66124	15.65710	15.32007	656.89843	37.19874	-21.15663	766.84871	53.28934	74.40772	657.77041	46.19689	-72.53036	728.33064	-316.94695	-88.84374	596.11429	-286.01286	-172.41328	748.94575	-262.85831	-184.93510	611.49178	-237.72651	61.05435	945.12979	-18.72572	-137.06992	984.56926	-66.96876	31.41465	918.28150	-267.01994	-156.19335	987.73803	-165.99238	-164.91949	1382.28203	-163.54535	-70.79229	1365.02657	20.26436	-75.70822	1350.97794	-337.07669	-22.89026	1364.64584	-135.98658	-18.63286	1364.34658	-179.38413	-68.53718	1237.87127	98.23210	-93.38935	1017.72845	76.84437	-95.79933	1044.49377	143.68747	-4.55592	948.39152	194.95940	58.34644	832.72317	231.26651	28.25748	820.71936	245.07717	-19.05252	1252.31324	-395.17806	57.42581	1024.18924	-353.13361	61.70079	1058.75963	-425.68252	177.04611	1050.69914	-419.17843	325.37123	996.88325	-421.69292	312.81271	973.62190	-444.00631	-20.14115	866.61510	-23.77873	-50.83507	853.11573	-227.48172	-9.83280	855.56592	-42.46626	-41.29150	860.77852	-205.36484	
4	0.03000000	146.85645	490.32928	-15.39217	200.12850	436.22899	-37.06050	219.35768	95.01637	-63.05027	160.15156	63.83704	-107.15970	328.41407	53.32836	-31.14388	376.05876	91.58342	-80.87533	-139.89010	477.46261	-253.54951	-162.36521	377.05532	-256.25840	-379.04970	155.61420	-195.45748	-450.60381	152.36710	-138.79113	-325.87964	46.27274	-239.95607	-267.25016	53.87124	-194.44838	208.76031	320.46909	-21.04006	123.67089	426.19705	-5.01058	134.28320	314.08795	-12.32895	-230.66367	434.94644	-249.32763	-300.10061	334.02469	-242.09963	95.69572	806.59735	27.63699	133.32255	698.34408	15.13555	28.97119	658.98519	38.66012	-6.90048	769.00173	54.72102	88.58892	659.81420	46.76868	-56.93612	728.22121	-316.72562	-71.74630	595.54562	-287.03209	-156.87745	747.32911	-262.34692	-167.69156	609.51961	-238.30474	75.15513	947.79671	-18.69826	-123.43429	985.78244	-66.77390	45.01931	918.87914	-266.59275	-142.64871	988.02347	-165.80729	-152.11950	1382.88185	-162.29753	-57.23522	1365.27391	21.02121	-63.51513	1352.20372	-336.16252	-10.02435	1365.37919	-135.32640	-5.77020	1365.22538	-178.69753	-54.15453	1238.12594	98.76809	-78.48132	1017.90433	77.09172	-80.71926	1044.48038	144.01437	10.96652	948.72545	194.92931	74.54921	833.31421	230.95752	44.46200	821.12943	244.80100	-7.78173	1253.03908	-394.45811	66.42436	1024.21347	-351.95661	70.76316	1058.41560	-424.73701	186.02725	1049.75963	-418.09501	334.17428	995.22559	-420.32189	321.47356	971.99525	-442.57835	-5.66761	868.80728	-22.91313	-36.73210	853.53736	-226.44311	4.51482	857.75706	-41.60231	-27.07931	861.44174	-204.44367	
